<?xml version="1.0" standalone="no"?>
<!DOCTYPE svg PUBLIC "-//W3C//DTD SVG 20010904//EN"
 "http://www.w3.org/TR/2001/REC-SVG-20010904/DTD/svg10.dtd">
<svg version="1.0" xmlns="http://www.w3.org/2000/svg"
 width="977.000000pt" height="977.000000pt" viewBox="0 0 977.000000 977.000000"
 preserveAspectRatio="xMidYMid meet">
<metadata>
Created by potrace 1.14, written by Peter Selinger 2001-2017
</metadata>
<g transform="translate(0.000000,977.000000) scale(0.100000,-0.100000)"
fill="#000000" stroke="none">
<path d="M4795 9757 c-56 -19 -60 -21 -335 -197 -135 -86 -533 -341 -885 -565
-352 -224 -739 -471 -860 -549 -121 -77 -235 -156 -254 -176 -77 -81 -109
-214 -77 -322 27 -95 70 -145 192 -225 60 -39 119 -79 131 -87 l22 -16 0 -535
c0 -295 3 -544 6 -555 9 -27 32 -32 168 -31 104 0 123 3 139 19 18 18 19 40
19 456 -1 344 2 435 12 430 18 -11 137 -88 250 -161 53 -34 99 -63 102 -63 3
0 11 -5 18 -10 7 -6 50 -35 97 -65 47 -29 140 -89 208 -132 67 -43 140 -89
162 -103 59 -37 293 -186 385 -246 219 -141 415 -264 455 -284 63 -32 167 -38
240 -13 34 11 262 150 587 358 293 187 544 347 557 355 13 8 69 43 123 78 54
35 157 100 228 146 643 409 786 502 822 537 85 81 118 204 89 320 -28 109 -82
172 -220 254 -33 20 -101 63 -151 95 -88 57 -296 190 -375 240 -22 14 -128 81
-236 150 -107 69 -206 132 -220 140 -23 14 -649 413 -849 542 -49 31 -95 62
-102 68 -7 5 -14 10 -17 10 -3 0 -43 25 -90 55 -47 31 -102 63 -123 71 -51 22
-168 27 -218 11z m402 -928 c150 -96 295 -187 321 -204 27 -16 214 -136 416
-265 202 -129 396 -253 431 -274 36 -22 65 -42 65 -46 0 -3 -105 -72 -232
-153 -128 -82 -397 -254 -598 -383 -201 -128 -374 -238 -385 -244 -11 -5 -89
-54 -173 -109 l-154 -99 -119 77 c-65 42 -137 87 -159 101 -47 29 -626 399
-745 476 -44 28 -156 100 -250 159 -93 59 -191 122 -217 138 -27 17 -48 33
-48 36 0 3 109 76 243 160 328 210 689 440 1005 643 145 92 268 168 273 168 5
0 9 5 9 11 0 7 8 6 23 -3 12 -8 145 -93 294 -189z"/>
<path d="M2653 5967 c-41 -8 -69 -30 -87 -67 -10 -20 -13 -419 -11 -1890 1
-1026 5 -1881 8 -1900 3 -19 9 -57 12 -85 12 -102 55 -293 90 -400 119 -359
307 -668 570 -931 259 -259 539 -438 885 -563 50 -18 223 -69 260 -76 99 -20
198 -36 255 -42 92 -10 422 -10 507 0 871 104 1596 661 1922 1479 26 65 49
126 51 136 2 11 12 50 23 88 41 141 66 284 79 454 4 47 7 902 7 1900 0 1751
-1 1816 -18 1843 -37 56 -58 60 -319 61 -264 1 -284 -3 -323 -61 l-21 -32 0
-1823 c0 -1003 -3 -1844 -7 -1870 -3 -27 -9 -69 -12 -95 -8 -66 -39 -196 -64
-268 -11 -33 -22 -64 -24 -70 -8 -28 -44 -108 -78 -174 -253 -487 -720 -815
-1268 -888 -111 -15 -395 -8 -485 12 -11 3 -31 7 -45 9 -99 16 -277 79 -415
147 -66 33 -122 64 -125 68 -3 4 -16 14 -29 21 -14 7 -30 16 -35 21 -196 153
-287 240 -383 367 -172 229 -287 506 -324 781 -9 62 -12 595 -13 1928 l-1
1842 -21 28 c-38 52 -58 55 -300 57 -123 0 -240 -2 -261 -7z"/>
<path d="M4791 5088 c-19 -5 -57 -24 -85 -42 -55 -36 -819 -806 -861 -868 -33
-49 -58 -149 -52 -207 26 -227 231 -359 450 -291 l72 23 287 288 286 289 277
-279 c327 -329 337 -336 480 -336 108 0 159 19 233 89 114 107 139 284 59 418
-24 40 -800 828 -857 870 -71 52 -198 72 -289 46z"/>
<path d="M4468 2775 c-2 -1 -32 -5 -68 -8 -299 -27 -503 -315 -429 -607 35
-137 130 -258 246 -314 32 -15 65 -31 73 -36 41 -20 173 -29 248 -15 134 23
266 119 340 244 71 121 79 314 19 441 -49 105 -141 198 -241 244 -45 22 -180
58 -188 51z"/>
</g>
</svg>
